<svg xmlns="http://www.w3.org/2000/svg" viewBox="0 0 512 512">
  <defs>
    <linearGradient id="gradient1" x1="0%" y1="0%" x2="100%" y2="100%">
      <stop offset="0%" stop-color="#3498db" />
      <stop offset="100%" stop-color="#2ecc71" />
    </linearGradient>
    <filter id="glow">
      <feGaussianBlur stdDeviation="5" result="blur" />
      <feComposite in="SourceGraphic" in2="blur" operator="over" />
    </filter>
  </defs>
  <path fill="url(#gradient1)" filter="url(#glow)" d="M208 16c0-8.84-7.16-16-16-16h-64c-8.84 0-16 7.16-16 16v16h96V16zm48 96h-16v-32c0-17.67-14.33-32-32-32h-64c-17.67 0-32 14.33-32 32v32h-16c-26.51 0-48 21.49-48 48v32c0 26.51 21.49 48 48 48h16v32c0 17.67 14.33 32 32 32h64c17.67 0 32-14.33 32-32v-32h16c26.51 0 48-21.49 48-48v-32c0-26.51-21.49-48-48-48zm-16 80c0 8.82-7.18 16-16 16h-16v16c0 17.67-14.33 32-32 32h-32c-17.67 0-32-14.33-32-32v-16h-16c-8.82 0-16-7.18-16-16v-16c0-8.82 7.18-16 16-16h16v-16c0-17.67 14.33-32 32-32h32c17.67 0 32 14.33 32 32v16h16c8.82 0 16 7.18 16 16v16zm128 32v-32c0-26.51-21.49-48-48-48h-16v-32c0-17.67-14.33-32-32-32h-64c-17.67 0-32 14.33-32 32v32h-16c-26.51 0-48 21.49-48 48v32c0 26.51 21.49 48 48 48h16v32c0 17.67 14.33 32 32 32h64c17.67 0 32-14.33 32-32v-32h16c26.51 0 48-21.49 48-48zm-16 0c0 8.82-7.18 16-16 16h-16v16c0 17.67-14.33 32-32 32h-32c-17.67 0-32-14.33-32-32v-16h-16c-8.82 0-16-7.18-16-16v-16c0-8.82 7.18-16 16-16h16v-16c0-17.67 14.33-32 32-32h32c17.67 0 32 14.33 32 32v16h16c8.82 0 16 7.18 16 16v16z" />
  <circle cx="180" cy="180" r="8" fill="#ffffff" opacity="0.8">
    <animate attributeName="opacity" values="0.8;0.2;0.8" dur="3s" repeatCount="indefinite" />
  </circle>
  <circle cx="320" cy="220" r="10" fill="#ffffff" opacity="0.6">
    <animate attributeName="opacity" values="0.6;0.1;0.6" dur="4s" repeatCount="indefinite" />
  </circle>
  <circle cx="250" cy="300" r="6" fill="#ffffff" opacity="0.7">
    <animate attributeName="opacity" values="0.7;0.3;0.7" dur="2.5s" repeatCount="indefinite" />
  </circle>
  <path fill="none" stroke="#ffffff" stroke-width="2" stroke-dasharray="10,10" d="M180,180 L250,300 L320,220 Z">
    <animate attributeName="stroke-dashoffset" values="0;40" dur="3s" repeatCount="indefinite" />
  </path>
</svg>